Coordinates
version=1
nRows=5
nColumns=63
inDegrees=yes

Units are S.I. units (second, meters, Newtons, ...)
If the header above contains a line with 'inDegrees', this indicates whether rotational values are in degrees (yes) or radians (no).

endheader
time	pelvis_tilt	pelvis_list	pelvis_rotation	pelvis_tx	pelvis_ty	pelvis_tz	hip_flexion_r	hip_adduction_r	hip_rotation_r	knee_angle_r	knee_angle_r_beta	ankle_angle_r	subtalar_angle_r	mtp_angle_r	hip_flexion_l	hip_adduction_l	hip_rotation_l	knee_angle_l	knee_angle_l_beta	ankle_angle_l	subtalar_angle_l	mtp_angle_l	L5_S1_Flex_Ext	L5_S1_Lat_Bending	L5_S1_axial_rotation	L4_L5_Flex_Ext	L4_L5_Lat_Bending	L4_L5_axial_rotation	L3_L4_Flex_Ext	L3_L4_Lat_Bending	L3_L4_axial_rotation	L2_L3_Flex_Ext	L2_L3_Lat_Bending	L2_L3_axial_rotation	L1_L2_Flex_Ext	L1_L2_Lat_Bending	L1_L2_axial_rotation	L1_T12_Flex_Ext	L1_T12_Lat_Bending	L1_T12_axial_rotation	Abs_r3	Abs_r2	Abs_r1	Abs_t1	Abs_t2	neck_flexion	neck_bending	neck_rotation	arm_flex_r	arm_add_r	arm_rot_r	elbow_flex_r	pro_sup_r	wrist_flex_r	wrist_dev_r	arm_flex_l	arm_add_l	arm_rot_l	elbow_flex_l	pro_sup_l	wrist_flex_l	wrist_dev_l
      0.03333333	      5.28419189	      0.86634073	    176.47513699	      2.44614077	      0.88296977	      0.60544258	     15.34187929	      1.09415936	     -7.21190790	     27.03170304	      0.47179222	     21.59822751	     -8.38088115	      0.00000000	      9.28113669	     -0.28378808	      1.22835472	     17.35252255	      0.30285865	     19.22559076	    -18.37009322	      0.00000000	      0.00222292	     -0.17329784	     -1.47904594	      0.00412818	     -0.23048612	     -1.57148631	      0.00365203	     -0.42135636	     -1.57148631	      0.00254057	     -0.42135636	     -1.29416520	      0.00206420	     -0.35338895	     -1.20172483	      0.00127017	     -0.26843835	     -1.10928445	      0.01587807	     -1.96037978	     -8.22600980	      0.00000000	      0.00000000	     -0.00000000	      0.00000000	      0.00000000	      6.94426212	    -12.49806199	     84.95904674	     20.80619729	     53.45571275	      0.00000000	      5.15138689	    -11.40497816	    -10.20169333	     14.93276808	     22.79831568	     57.62816780	      0.00000000	      5.15138689
      0.06666667	      5.03254527	     -0.05010279	    175.78666534	      2.44809854	      0.88544384	      0.60501854	     14.49442381	      0.58956370	     -5.77519699	     25.25140018	      0.44072007	     22.00804100	     -7.55537649	      0.00000000	      9.37253008	      0.75403524	      0.59602827	     17.00951049	      0.29687196	     17.93199788	    -18.51117166	      0.00000000	      0.00245169	     -0.22583576	     -1.18924235	      0.00455303	     -0.30036156	     -1.26357000	      0.00402788	     -0.54909707	     -1.26357000	      0.00280204	     -0.54909707	     -1.04058706	      0.00227664	     -0.46052429	     -0.96625941	      0.00140090	     -0.34981960	     -0.89193177	      0.01751218	     -2.55469932	     -6.61420921	      0.00000000	      0.00000000	     -0.00000000	      0.00000000	      0.00000000	      6.89408242	    -12.18877716	     85.08208455	     19.85186540	     53.52207515	      0.00000000	      5.14451055	    -10.47330118	    -10.35866713	     16.17922448	     22.25325982	     57.96759299	      0.00000000	      5.14451055
      0.10000000	      4.80699588	     -0.83027984	    175.42933216	      2.44953392	      0.88737060	      0.60480642	     13.60072200	      0.13032451	     -4.65137201	     23.47564406	      0.40972728	     22.25899043	     -7.08091090	      0.00000000	      9.58686566	      1.64740171	      0.13787892	     17.04713431	      0.29752862	     17.04733864	    -18.66190188	      0.00000000	      0.00224831	     -0.27398084	     -0.99324016	      0.00417534	     -0.36439452	     -1.05531767	      0.00369376	     -0.66615702	     -1.05531767	      0.00256960	     -0.66615702	     -0.86908514	      0.00208778	     -0.55870173	     -0.80700763	      0.00128469	     -0.42439633	     -0.74493012	      0.01605948	     -3.09932609	     -5.52410377	      0.00000000	      0.00000000	     -0.00000000	      0.00000000	      0.00000000	      6.84741855	    -12.01171690	     85.12534034	     19.26847727	     53.57282223	      0.00000000	      5.14161721	     -9.83953466	    -10.52868779	     17.01060021	     22.02662724	     58.21338283	      0.00000000	      5.14161721
      0.13333333	      4.58330406	     -1.35176941	    174.60671939	      2.45035125	      0.88877538	      0.60355058	     12.82224951	      0.39602687	     -1.17489565	     21.94567217	      0.38302424	     21.43444535	    -10.01981209	      0.00000000	      9.34428079	      2.10794072	     -0.91857295	     16.56222460	      0.28906535	     16.43453554	    -18.58691310	      0.00000000	      0.00204781	     -0.30672488	     -0.74139737	      0.00380298	     -0.40794409	     -0.78773471	      0.00336434	     -0.74577088	     -0.78773471	      0.00234044	     -0.74577088	     -0.64872270	      0.00190159	     -0.62547338	     -0.60238536	      0.00117012	     -0.47511684	     -0.55604803	      0.01462727	     -3.46973320	     -4.12342976	      0.00000000	      0.00000000	     -0.00000000	      0.00000000	      0.00000000	      6.80991133	    -11.73738233	     85.63693625	     18.64377921	     54.12695083	      0.00000000	      5.10877823	     -8.33840226	    -12.12703268	     27.71838650	     21.50229247	     61.15476492	      0.00000000	      5.10877823
      0.16666667	      4.50452894	     -1.44629873	    174.46680783	      2.45050836	      0.88941721	      0.60338592	     12.15727069	      0.55138169	     -0.09428698	     20.71751174	      0.36158879	     21.13809648	    -10.79990653	      0.00000000	      9.27381682	      2.22693073	     -1.21145571	     16.44472821	      0.28701465	     16.27426838	    -18.59345303	      0.00000000	      0.00186607	     -0.30721935	     -0.69472651	      0.00346548	     -0.40860174	     -0.73814692	      0.00306577	     -0.74697314	     -0.73814692	      0.00213273	     -0.74697314	     -0.60788570	      0.00173283	     -0.62648171	     -0.56446529	      0.00106627	     -0.47588278	     -0.52104488	      0.01332915	     -3.47532678	     -3.86386043	      0.00000000	      0.00000000	     -0.00000000	      0.00000000	      0.00000000	      6.81331773	    -11.74390386	     85.72531644	     18.51921214	     54.28026302	      0.00000000	      5.07790340	     -8.04485795	    -12.34668816	     29.88751764	     21.40160837	     60.76760796	      0.00000000	      5.07790340
